<?xml version="1.0" encoding="utf-8"?><!-- Uploaded to: SVG Repo, www.svgrepo.com, Generator: SVG Repo Mixer Tools -->
<svg fill="#fff" width="800px" height="800px" viewBox="0 0 24 24" xmlns="http://www.w3.org/2000/svg" id="image" class="icon glyph"><path d="M20,3H4A2,2,0,0,0,2,5V16.76l4.88-4.88A3,3,0,0,1,11,11.76l.87-.88A3,3,0,0,1,14,10a3,3,0,0,1,2.12.88L22,16.76V5A2,2,0,0,0,20,3ZM11,9a2,2,0,1,1,2-2A2,2,0,0,1,11,9ZM21.93,19.51a2,2,0,0,1-1.42,1.42A1.7,1.7,0,0,1,20,21H4a1.7,1.7,0,0,1-.51-.07,2,2,0,0,1-1.42-1.42L4,17.58l4.29-4.29a1,1,0,0,1,1.42,0L11,14.59l2.29-2.3a1,1,0,0,1,1.42,0L20,17.58Z"></path></svg>