<?xml version="1.0" encoding="utf-8"?><!-- Uploaded to: SVG Repo, www.svgrepo.com, Generator: SVG Repo Mixer Tools -->
<svg width="30" height="30" viewBox="0 0 24 24" fill="none" xmlns="http://www.w3.org/2000/svg">
<path d="M16.4481 1.50023C14.844 1.4862 13.3007 2.10727 12.15 3.22645L12.1351 3.24107L11.6464 3.7298C11.2559 4.12032 11.2559 4.75349 11.6464 5.14401L12.3535 5.85112C12.7441 6.24164 13.3772 6.24164 13.7677 5.85112L14.2484 5.37048C14.834 4.80437 15.6142 4.49305 16.4218 4.50012C17.2326 4.50721 18.0103 4.83463 18.5868 5.41517C19.1637 5.99606 19.4927 6.78402 19.4998 7.60991C19.5069 8.43176 19.1946 9.22174 18.633 9.81182L15.5209 12.9432C15.2056 13.2609 14.8269 13.5058 14.4107 13.6622C13.9945 13.8185 13.5501 13.8828 13.1076 13.8509C12.6651 13.8189 12.2341 13.6915 11.8438 13.4768C11.7456 13.4228 11.6504 13.3635 11.5588 13.2993C11.1066 12.9823 10.4859 12.8717 10.0425 13.201L9.23978 13.7973C8.79642 14.1266 8.69902 14.7603 9.09601 15.1443C9.48444 15.52 9.9219 15.8435 10.3977 16.1053C11.1664 16.5282 12.0171 16.78 12.8918 16.8431C13.7666 16.9062 14.6444 16.779 15.4656 16.4706C16.2868 16.1621 17.0317 15.6797 17.65 15.0568L20.7712 11.9162L20.7898 11.8971C21.9007 10.7389 22.5136 9.18987 22.4997 7.58402C22.4859 5.97817 21.8463 4.43996 20.7155 3.30127C19.5844 2.16225 18.0521 1.51427 16.4481 1.50023Z" fill="#fff"/>
<path d="M11.1082 7.15685C10.2334 7.09376 9.35555 7.22089 8.53436 7.52937C7.71347 7.83773 6.96821 8.32053 6.34994 8.94317L3.22873 12.0838L3.21011 12.1029C2.09928 13.261 1.48637 14.8101 1.50023 16.416C1.51409 18.0218 2.15365 19.56 3.28441 20.6987C4.41551 21.8377 5.94781 22.4857 7.55185 22.4997C9.15591 22.5138 10.6993 21.8927 11.85 20.7735L11.8648 20.7589L12.3536 20.2701C12.7441 19.8796 12.7441 19.2465 12.3536 18.8559L11.6464 18.1488C11.2559 17.7583 10.6228 17.7583 10.2322 18.1488L9.75155 18.6295C9.16598 19.1956 8.38576 19.5069 7.5781 19.4999C6.76732 19.4928 5.98963 19.1653 5.41313 18.5848C4.83629 18.0039 4.50725 17.216 4.50012 16.3901C4.49303 15.5682 4.80532 14.7782 5.36694 14.1881L8.47904 11.0567C8.79434 10.7391 9.1731 10.4941 9.58932 10.3378C10.0055 10.1814 10.4498 10.1172 10.8924 10.1491C11.3349 10.181 11.7659 10.3084 12.1561 10.5231C12.2544 10.5772 12.3495 10.6365 12.4411 10.7007C12.8934 11.0177 13.5141 11.1282 13.9574 10.7989L14.7602 10.2026C15.2036 9.87328 15.301 9.23958 14.904 8.85563C14.5155 8.47995 14.0781 8.15644 13.6022 7.89464C12.8335 7.47172 11.9829 7.21993 11.1082 7.15685Z" fill="#fff"/>
</svg>