<?xml version="1.0" encoding="utf-8"?><!-- Uploaded to: SVG Repo, www.svgrepo.com, Generator: SVG Repo Mixer Tools -->
<svg width="30" height="30" viewBox="0 0 24 24" fill="none" xmlns="http://www.w3.org/2000/svg">
<path d="M3 4C2.44772 4 2 4.44772 2 5V5.5C2 6.05228 2.44772 6.5 3 6.5H21C21.5523 6.5 22 6.05228 22 5.5V5C22 4.44772 21.5523 4 21 4H3Z" fill="#fff"/>
<path d="M3 13C2.44772 13 2 13.4477 2 14V14.5C2 15.0523 2.44772 15.5 3 15.5H21C21.5523 15.5 22 15.0523 22 14.5V14C22 13.4477 21.5523 13 21 13H3Z" fill="#fff"/>
<path d="M2 9.5C2 8.94772 2.44772 8.5 3 8.5H15C15.5523 8.5 16 8.94772 16 9.5V10C16 10.5523 15.5523 11 15 11H3C2.44772 11 2 10.5523 2 10V9.5Z" fill="#fff"/>
<path d="M3 17.5C2.44772 17.5 2 17.9477 2 18.5V19C2 19.5523 2.44772 20 3 20H15C15.5523 20 16 19.5523 16 19V18.5C16 17.9477 15.5523 17.5 15 17.5H3Z" fill="#fff"/>
</svg>