<svg width="74" height="52" viewBox="0 0 74 52" fill="none" xmlns="http://www.w3.org/2000/svg">
<g filter="url(#filter0_d_2111_159)">
<path d="M0.112469 48C0.253094 47.2031 0.323406 46.3359 0.323406 45.3984V1.24219H7.35466L25.9875 30.5625V3.63281C25.9875 2.34375 25.8703 1.54688 25.6359 1.24219H35.1281C35.0109 2.17969 34.9523 3.21094 34.9523 4.33594V48H27.6398L9.28825 19.8398V48H0.112469Z" fill="#FE3B7B" style="fill:#FE3B7B;fill:color(display-p3 0.9961 0.2314 0.4824);fill-opacity:1;"/>
<path d="M70.8758 19.8047C70.4305 20.6016 70.2078 22.5117 70.2078 25.5352V36.4336C70.2078 39.7383 68.4969 42.6094 65.075 45.0469C61.536 47.6016 57.2 48.8789 52.0672 48.8789C44.9422 48.8789 39.2586 46.6406 35.0164 42.1641C30.9149 37.8984 28.8641 32.4609 28.8641 25.8516C28.8641 18.8203 30.95 12.9609 35.1219 8.27344C39.786 3 46.2078 0.363281 54.3875 0.363281C59.8485 0.363281 64.1727 1.41797 67.3602 3.52734L66.7977 13.8984L66.5164 13.9688C65.6961 12.5391 64.0789 11.3672 61.6649 10.4531C59.368 9.58594 56.9539 9.15234 54.4227 9.15234C51.9149 9.15234 49.7118 9.55078 47.8133 10.3477C45.9383 11.1445 44.3446 12.2812 43.0321 13.7578C40.2664 16.7812 38.8836 20.7773 38.8836 25.7461C38.8836 30.082 40.1024 33.5625 42.5399 36.1875C44.9774 38.7891 48.118 40.0898 51.9618 40.0898C56.2039 40.0898 59.0633 38.9883 60.5399 36.7852C61.0086 36.082 61.243 35.2852 61.243 34.3945V28.5586H56.7078C54.2703 28.5586 52.9461 28.7695 52.7352 29.1914L52.6297 29.1562L52.3133 19.9805C52.9696 20.168 55.6297 20.2617 60.2938 20.2617H64.4422C67.0203 20.2617 69.1297 20.0859 70.7703 19.7344L70.8758 19.8047Z" fill="#F2F2F2" style="fill:#F2F2F2;fill:color(display-p3 0.9472 0.9472 0.9472);fill-opacity:1;"/>
<path d="M0.112469 48L-1.8571 47.6524L-2.27138 50H0.112469V48ZM0.323406 1.24219V-0.757812H-1.67659V1.24219H0.323406ZM7.35466 1.24219L9.04265 0.169484L8.45336 -0.757812H7.35466V1.24219ZM25.9875 30.5625L24.2995 31.6352L27.9875 37.4386V30.5625H25.9875ZM25.6359 1.24219V-0.757812H21.5742L24.0507 2.46161L25.6359 1.24219ZM35.1281 1.24219L37.1126 1.49026L37.3937 -0.757812H35.1281V1.24219ZM34.9523 48V50H36.9523V48H34.9523ZM27.6398 48L25.9642 49.092L26.556 50H27.6398V48ZM9.28825 19.8398L10.9638 18.7479L7.28825 13.1077V19.8398H9.28825ZM9.28825 48V50H11.2882V48H9.28825ZM2.08204 48.3476C2.24579 47.4196 2.32341 46.4346 2.32341 45.3984H-1.67659C-1.67659 46.2373 -1.73961 46.9866 -1.8571 47.6524L2.08204 48.3476ZM2.32341 45.3984V1.24219H-1.67659V45.3984H2.32341ZM0.323406 3.24219H7.35466V-0.757812H0.323406V3.24219ZM5.66667 2.31489L24.2995 31.6352L27.6755 29.4898L9.04265 0.169484L5.66667 2.31489ZM27.9875 30.5625V3.63281H23.9875V30.5625H27.9875ZM27.9875 3.63281C27.9875 2.94125 27.9569 2.31167 27.8783 1.77737C27.8133 1.33538 27.6736 0.610999 27.2212 0.022766L24.0507 2.46161C23.9781 2.36727 23.936 2.28833 23.9149 2.24418C23.8932 2.19893 23.8846 2.17176 23.8844 2.17107C23.8839 2.16951 23.8884 2.18369 23.8958 2.21746C23.903 2.25074 23.9117 2.29739 23.9209 2.35935C23.9595 2.62193 23.9875 3.03531 23.9875 3.63281H27.9875ZM25.6359 3.24219H35.1281V-0.757812H25.6359V3.24219ZM33.1435 0.994118C33.0143 2.02765 32.9523 3.14312 32.9523 4.33594H36.9523C36.9523 3.27875 37.0075 2.33172 37.1126 1.49026L33.1435 0.994118ZM32.9523 4.33594V48H36.9523V4.33594H32.9523ZM34.9523 46H27.6398V50H34.9523V46ZM29.3154 46.908L10.9638 18.7479L7.61265 20.9318L25.9642 49.092L29.3154 46.908ZM7.28825 19.8398V48H11.2882V19.8398H7.28825ZM9.28825 46H0.112469V50H9.28825V46ZM70.8758 19.8047L72.6217 20.7803L73.5237 19.1662L71.9852 18.1406L70.8758 19.8047ZM65.075 45.0469L63.9146 43.4179L63.9044 43.4252L65.075 45.0469ZM35.0164 42.1641L36.4681 40.7884L36.4631 40.7831L36.4581 40.7778L35.0164 42.1641ZM35.1219 8.27344L36.6159 9.6031L36.62 9.59844L35.1219 8.27344ZM67.3602 3.52734L69.3573 3.63566L69.4193 2.49171L68.4639 1.85948L67.3602 3.52734ZM66.7977 13.8984L67.2828 15.8387L68.7148 15.4807L68.7948 14.0068L66.7977 13.8984ZM66.5164 13.9688L64.7817 14.9641L65.5343 16.2758L67.0015 15.909L66.5164 13.9688ZM61.6649 10.4531L62.3731 8.58271L62.3713 8.58204L61.6649 10.4531ZM47.8133 10.3477L47.0392 8.50351L47.031 8.50699L47.8133 10.3477ZM43.0321 13.7578L44.5078 15.1077L44.5174 15.0972L44.5269 15.0865L43.0321 13.7578ZM42.5399 36.1875L41.0743 37.5484L41.0804 37.5549L42.5399 36.1875ZM60.5399 36.7852L62.2013 37.8986L62.204 37.8946L60.5399 36.7852ZM61.243 28.5586H63.243V26.5586H61.243V28.5586ZM52.7352 29.1914L52.1027 31.0888L53.7483 31.6373L54.524 30.0858L52.7352 29.1914ZM52.6297 29.1562L50.6309 29.2252L50.6788 30.6141L51.9973 31.0536L52.6297 29.1562ZM52.3133 19.9805L52.8628 18.0574L50.2198 17.3023L50.3145 20.0494L52.3133 19.9805ZM70.7703 19.7344L71.8797 18.0703L71.1771 17.6018L70.3513 17.7788L70.7703 19.7344ZM69.1299 18.829C68.7016 19.5955 68.5038 20.6122 68.3883 21.6034C68.2644 22.6658 68.2078 23.9844 68.2078 25.5352H72.2078C72.2078 24.0625 72.2626 22.9143 72.3614 22.0665C72.4107 21.6436 72.4679 21.3231 72.5253 21.0902C72.586 20.8444 72.6306 20.7645 72.6217 20.7803L69.1299 18.829ZM68.2078 25.5352V36.4336H72.2078V25.5352H68.2078ZM68.2078 36.4336C68.2078 38.9181 66.9688 41.2423 63.9147 43.4179L66.2354 46.6758C70.025 43.9764 72.2078 40.5585 72.2078 36.4336H68.2078ZM63.9044 43.4252C60.7631 45.6928 56.856 46.8789 52.0672 46.8789V50.8789C57.5441 50.8789 62.3088 49.5103 66.2456 46.6685L63.9044 43.4252ZM52.0672 46.8789C45.3982 46.8789 40.273 44.8035 36.4681 40.7884L33.5647 43.5398C38.2442 48.4778 44.4863 50.8789 52.0672 50.8789V46.8789ZM36.4581 40.7778C32.7579 36.9296 30.8641 32.0098 30.8641 25.8516H26.8641C26.8641 32.9121 29.0719 38.8673 33.5748 43.5503L36.4581 40.7778ZM30.8641 25.8516C30.8641 19.2471 32.8098 13.8796 36.6159 9.60309L33.6279 6.94378C29.0903 12.0423 26.8641 18.3935 26.8641 25.8516H30.8641ZM36.62 9.59844C40.8416 4.82533 46.6785 2.36328 54.3875 2.36328V-1.63672C45.7371 -1.63672 38.7304 1.17467 33.6238 6.94843L36.62 9.59844ZM54.3875 2.36328C59.6167 2.36328 63.5086 3.37679 66.2565 5.19521L68.4639 1.85948C64.8368 -0.540852 60.0803 -1.63672 54.3875 -1.63672V2.36328ZM65.3631 3.41903L64.8006 13.7901L68.7948 14.0068L69.3573 3.63566L65.3631 3.41903ZM66.3126 11.9582L66.0314 12.0285L67.0015 15.909L67.2828 15.8387L66.3126 11.9582ZM68.2512 12.9734C67.1015 10.9697 64.9887 9.57309 62.3731 8.58271L60.9567 12.3235C63.1692 13.1613 64.2907 14.1084 64.7817 14.9641L68.2512 12.9734ZM62.3713 8.58204C59.8416 7.62697 57.1877 7.15234 54.4227 7.15234V11.1523C56.7202 11.1523 58.8944 11.5449 60.9584 12.3242L62.3713 8.58204ZM54.4227 7.15234C51.7055 7.15234 49.23 7.58396 47.0392 8.50353L48.5874 12.1918C50.1935 11.5176 52.1242 11.1523 54.4227 11.1523V7.15234ZM47.031 8.50699C44.8923 9.41595 43.0527 10.7242 41.5372 12.4291L44.5269 15.0865C45.6365 13.8383 46.9843 12.8731 48.5956 12.1883L47.031 8.50699ZM41.5563 12.4079C38.3849 15.875 36.8836 20.3895 36.8836 25.7461H40.8836C40.8836 21.1652 42.148 17.6875 44.5078 15.1077L41.5563 12.4079ZM36.8836 25.7461C36.8836 30.4747 38.2239 34.4788 41.0743 37.5484L44.0055 34.8266C41.9808 32.6462 40.8836 29.6893 40.8836 25.7461H36.8836ZM41.0804 37.5549C43.9278 40.594 47.6132 42.0898 51.9618 42.0898V38.0898C48.6228 38.0898 46.027 36.9841 43.9994 34.8201L41.0804 37.5549ZM51.9618 42.0898C56.4593 42.0898 60.1714 40.9272 62.2013 37.8986L58.8785 35.6717C57.9552 37.0493 55.9486 38.0898 51.9618 38.0898V42.0898ZM62.204 37.8946C62.9039 36.8447 63.243 35.6576 63.243 34.3945H59.243C59.243 34.9127 59.1134 35.3194 58.8758 35.6758L62.204 37.8946ZM63.243 34.3945V28.5586H59.243V34.3945H63.243ZM61.243 26.5586H56.7078V30.5586H61.243V26.5586ZM56.7078 26.5586C55.4541 26.5586 54.39 26.6114 53.5719 26.7417C53.1688 26.8059 52.7359 26.9023 52.3399 27.0655C52.0088 27.202 51.3275 27.5346 50.9463 28.297L54.524 30.0858C54.3775 30.379 54.1851 30.5536 54.0711 30.6396C53.9578 30.7251 53.8743 30.7595 53.8643 30.7636C53.8522 30.7686 53.9422 30.7332 54.2012 30.6919C54.7074 30.6113 55.5241 30.5586 56.7078 30.5586V26.5586ZM53.3676 27.294L53.2622 27.2589L51.9973 31.0536L52.1027 31.0888L53.3676 27.294ZM54.6285 29.0873L54.3121 19.9115L50.3145 20.0494L50.6309 29.2252L54.6285 29.0873ZM51.7639 21.9035C52.1349 22.0095 52.6 22.0614 53.0122 22.0964C53.473 22.1354 54.0492 22.1662 54.7302 22.1902C56.0948 22.2383 57.9529 22.2617 60.2938 22.2617V18.2617C57.9706 18.2617 56.1666 18.2383 54.8711 18.1926C54.222 18.1698 53.7186 18.1419 53.3502 18.1107C52.9334 18.0753 52.8198 18.0452 52.8628 18.0574L51.7639 21.9035ZM60.2938 22.2617H64.4422V18.2617H60.2938V22.2617ZM64.4422 22.2617C67.0948 22.2617 69.3585 22.0823 71.1894 21.69L70.3513 17.7788C68.9009 18.0896 66.9459 18.2617 64.4422 18.2617V22.2617ZM69.6609 21.3985L69.7664 21.4688L71.9852 18.1406L71.8797 18.0703L69.6609 21.3985Z" fill="black" style="fill:black;fill:black;fill-opacity:1;"/>
</g>
<defs>
<filter id="filter0_d_2111_159" x="0.112305" y="0.363281" width="73.7637" height="51.5156" filterUnits="userSpaceOnUse" color-interpolation-filters="sRGB">
<feFlood flood-opacity="0" result="BackgroundImageFix"/>
<feColorMatrix in="SourceAlpha" type="matrix" values="0 0 0 0 0 0 0 0 0 0 0 0 0 0 0 0 0 0 127 0" result="hardAlpha"/>
<feOffset dx="3" dy="3"/>
<feComposite in2="hardAlpha" operator="out"/>
<feColorMatrix type="matrix" values="0 0 0 0 0 0 0 0 0 0 0 0 0 0 0 0 0 0 1 0"/>
<feBlend mode="normal" in2="BackgroundImageFix" result="effect1_dropShadow_2111_159"/>
<feBlend mode="normal" in="SourceGraphic" in2="effect1_dropShadow_2111_159" result="shape"/>
</filter>
</defs>
</svg>
