<svg width="25" height="25" viewBox="0 0 32 31" fill="none" xmlns="http://www.w3.org/2000/svg">
<path d="M31.7166 29.3362L22.3037 19.8656C24.0581 17.7644 25.1155 15.0611 25.1155 12.1093C25.1155 5.42158 19.6939 -3.05176e-05 13.0061 -3.05176e-05C6.31834 -3.05176e-05 0.896729 5.42158 0.896729 12.1093C0.896729 18.7971 6.31834 24.2187 13.0061 24.2187C16.0446 24.2187 18.8201 23.0969 20.9465 21.2476L30.3462 30.7064C30.7245 31.0848 31.3383 31.0848 31.7166 30.7064C32.0944 30.3281 32.0944 29.7149 31.7166 29.3362H31.7166ZM13.0061 22.2972C7.3796 22.2972 2.81824 17.7358 2.81824 12.1093C2.81824 6.48284 7.3796 1.92149 13.0061 1.92149C18.6326 1.92149 23.194 6.48284 23.194 12.1093C23.194 17.7358 18.6326 22.2972 13.0061 22.2972Z" fill="black"/>
</svg>
