<svg width="204" height="204" viewBox="0 0 204 204" fill="none" xmlns="http://www.w3.org/2000/svg">
<g clip-path="url(#clip0_1811_671)">
<path d="M35.2165 193.249C34.7554 191.209 32.3279 191.142 31.7486 189.222C29.953 180.899 29.1808 172.387 29.4493 163.877C28.3824 155.535 26.5117 147.996 25.4142 139.689C19.7328 140.341 14.5289 141.476 11.0201 144.293C8.6182 151.724 7.63881 159.541 8.13342 167.335C9.30438 172.119 10.2225 177.147 11.0201 182.308C12.4726 186.337 14.284 193 8.13342 193.249C3.64542 192.359 3.8371 186.79 2.95174 182.308C1.67878 182.237 2.70907 179.86 2.37451 178.853C1.09951 178.781 2.1277 176.405 1.79926 175.395C0.658903 174.032 1.14438 171.06 0.0692974 169.636C-0.308316 160.292 0.859245 150.951 3.525 141.988C6.87806 137.469 11.8149 134.385 17.346 133.353C19.522 133.216 21.6985 133.61 23.6884 134.501C24.5044 131.237 21.3649 127.322 21.9545 122.41C22.9031 120.276 26.0345 120.349 27.1381 118.371C27.9541 118.428 28.7701 118.471 28.8721 117.8C44.0681 117.443 55.4471 113.273 69.7617 112.041C75.1222 112.564 80.51 112.758 85.8942 112.62C85.8698 108.991 84.7538 106.453 84.7375 102.828H55.9409C53.9174 102.679 51.9508 102.088 50.1798 101.098C48.3887 102.597 45.896 101.118 44.4231 100.523C42.6707 96.7263 43.956 90.435 44.4231 85.5471V66.5425C45.4962 58.9741 44.4536 49.2963 47.2973 43.4904C52.9808 41.8768 60.4187 42.0197 65.7288 40.0388C67.1323 39.3289 63.9213 38.4415 63.4256 37.7336C62.8683 37.2223 62.4257 36.5986 62.1272 35.9038C61.8286 35.2089 61.6809 34.4587 61.6936 33.7025C62.1016 29.3002 67.3874 29.7878 68.6073 26.2178C66.9957 25.1366 63.6969 25.7547 62.8503 23.9126C60.641 23.6188 58.3766 23.3904 58.2399 21.0301C57.6993 16.842 61.0042 16.5033 63.9969 15.8464C61.1143 8.74521 68.9457 5.34651 75.5207 7.78431C76.6243 10.4669 76.2898 15.0325 74.362 16.4217C72.3383 18.0537 69.67 19.0186 68.038 21.028C68.6847 22.1112 70.2677 22.252 70.9165 23.3332C71.2979 23.3557 71.7181 23.3332 72.1404 23.3332C73.5093 23.2843 74.8842 23.2333 74.9474 24.494C75.0943 28.6781 71.9548 29.5715 70.9165 32.556C72.2608 34.6736 75.8124 34.5634 74.9474 38.8923C96.9794 37.3134 118.603 35.3203 142.339 35.4386C143.814 35.9635 145.386 36.1592 146.945 36.0119C150.736 38.3619 156.87 38.3741 159.038 42.3541C159.34 47.0604 157.378 49.5206 156.733 53.2926V96.4917C155.689 97.173 156.284 99.4946 155.578 100.523C155.393 101.873 153.8 101.812 153.275 102.826C149.159 103.672 148.318 101.251 146.366 99.9454C145.868 100.761 144.436 100.645 143.002 100.527C142.206 100.422 141.399 100.422 140.603 100.527C139.634 100.375 138.643 100.473 137.722 100.812C136.804 101.152 135.814 101.251 134.846 101.1C131.396 101.686 127.347 101.669 123.903 102.253C123.518 106.278 124.417 109.034 124.479 112.622C129.53 112.632 134.152 112.306 138.855 111.981C145.566 111.405 152.306 111.234 159.038 111.467C164.444 112.973 171.719 112.614 176.892 114.346C177.533 116.59 177.178 119.821 178.62 121.257C177.533 124.205 179.232 127.973 178.62 132.204C180.168 132.127 181.708 131.934 183.227 131.627C190.05 129.562 199.073 131.361 202.231 137.386C202.758 138.393 202.435 140.26 203.388 140.843C203.455 144.803 203.078 149.207 203.963 152.361V172.523C204.102 175.604 203.909 178.692 203.388 181.733C203.7 185.309 202.272 187.153 198.784 186.921C194.553 186.792 195.893 179.791 196.479 176.551V140.264C194.963 136.508 189.557 136.651 184.151 136.796C182.462 136.841 180.771 136.884 179.202 136.81V181.735C179.112 186.631 179.797 192.321 176.315 193.834C173.039 193.651 173.108 190.134 172.284 187.496V177.704C170.652 160.905 172.757 140.372 171.135 123.567C165.785 122.577 159.407 122.62 155.007 120.684C134.385 119.901 116.451 120.621 96.2553 121.259C86.0411 122.757 74.0724 122.506 64.5721 124.727C54.7638 126.433 47.0811 130.272 37.5013 132.214C40.1011 146.856 41.4496 161.693 41.5322 176.564C41.8672 178.735 42.4482 180.86 43.2642 182.9V192.115C43.0153 194.75 42.0037 196.621 39.2272 196.725H39.1047C38.6158 196.779 38.1211 196.729 37.6527 196.578C37.1843 196.428 36.7526 196.181 36.3859 195.853C36.0192 195.526 35.7257 195.124 35.5243 194.676C35.3228 194.227 35.2178 193.741 35.2165 193.249ZM28.3028 126.437H29.4595V125.29H28.3028V126.437ZM113.546 103.403C115.178 106.386 112.447 113.715 118.151 112.62C117.613 109.386 117.421 106.103 117.577 102.828H110.093C110.058 104.376 110.682 103.987 111.555 103.595C111.956 103.39 112.395 103.272 112.845 103.246C113.087 103.243 113.327 103.298 113.546 103.403ZM55.9512 49.2595C55.7571 53.1098 55.9498 56.9697 56.5264 60.7815C56.2347 67.2156 56.8405 72.7522 57.1036 78.6356V92.4566C57.2689 93.4664 55.488 95.3309 57.1036 95.9123C58.8478 93.6255 63.7888 94.5394 66.8957 93.6091C75.068 93.3684 82.7627 93.6091 90.4596 93.8478C96.3552 94.0334 102.251 94.2171 108.363 94.1865C108.628 93.3705 109.823 93.4867 111.015 93.603C111.661 93.7024 112.319 93.7024 112.965 93.603H118.146C119.68 93.6317 121.213 93.5205 122.726 93.2706C124.639 92.9371 126.587 92.8555 128.52 93.0278C134.988 91.9 141.539 91.3206 148.104 91.2958C147.967 76.9097 146.088 59.4882 149.253 46.9462C144.801 44.8287 138.051 45.0204 131.3 45.2122C127.981 45.308 124.66 45.4019 121.615 45.2122C120.872 45.2407 120.815 45.9487 119.885 45.7875C109.234 46.2731 98.3648 46.5382 87.0509 46.3648C75.884 46.532 67.1671 49.1473 55.9512 49.2595ZM72.6546 189.797C69.5456 189.44 66.4655 188.863 63.4378 188.071C64.9556 186.715 68.3156 187.188 70.3494 186.341H77.2608C80.8757 185.933 83.9236 184.94 87.6262 184.614C90.3006 184.561 94.9986 181.811 96.8448 184.614C97.1651 190.122 90.1884 188.318 86.4797 189.797H72.6546ZM131.978 181.16C131.307 175.256 137.6 171.256 140.038 176.549C140.299 180.258 139.148 182.563 136.584 183.463C136.314 183.501 136.041 183.521 135.768 183.522C134.987 183.484 134.229 183.247 133.565 182.833C132.902 182.419 132.355 181.843 131.978 181.158V181.16ZM57.6831 178.279C57.6076 175.521 59.5944 174.811 62.2913 174.824C63.4488 174.968 64.6238 174.869 65.741 174.534C66.8595 174.198 68.036 174.1 69.1947 174.246C73.8203 174.096 78.4352 173.712 83.0217 173.094C88.2707 173.161 92.2568 171.968 97.418 171.945C99.6831 171.419 102.013 171.225 104.334 171.37C105.372 169.909 108.822 170.876 110.093 169.638C112.92 169.305 114.34 170.385 114.701 172.52C114.511 175.784 111 175.729 108.363 176.549C107.33 177.249 105.013 176.653 104.334 177.7C103.686 177.801 103.027 177.801 102.379 177.7C101.186 177.586 99.9947 177.472 99.7275 178.283C93.5481 178.392 87.386 178.97 81.294 180.011H68.6195C66.8794 180.011 65.0024 180.187 63.2705 180.187C60.8938 180.181 58.7888 179.852 57.6831 178.279ZM52.4952 157.541C51.3956 155.07 53.1541 151.06 52.4952 147.176C53.2765 147 52.9727 145.733 53.0747 144.872C54.1178 143.707 54.9002 142.333 55.3697 140.841C60.6815 136.384 66.723 132.876 73.2279 130.474H83.0198C89.6538 133.842 92.014 144.485 89.9292 154.662C82.1844 155.314 74.4904 156.469 66.8957 158.12C64.7128 157.934 62.517 157.949 60.337 158.167C59.0334 158.261 57.7808 158.353 56.6282 158.353C55.2038 158.443 53.78 158.167 52.4932 157.549L52.4952 157.541ZM58.8316 144.87C57.8794 147.245 57.4871 149.807 57.6851 152.357C62.3232 152.688 66.9844 152.3 71.5039 151.206C72.7585 150.819 70.4125 149.291 69.7719 148.901C69.2885 147.657 68.2849 146.941 68.6215 144.872C71.7427 142.955 73.9254 146.3 76.6896 146.598C77.1404 147.873 78.701 148.04 79.568 148.901C79.9312 150.305 80.6146 149.989 81.5754 149.674C82.2154 149.413 82.9178 149.342 83.5972 149.471C84.0318 143.859 83.2015 139.505 80.7188 136.798H70.9267C66.761 139.36 61.9812 141.309 58.8294 144.87H58.8316ZM15.053 154.087C13.3741 150.646 15.3631 144.12 19.6635 146.596C20.8283 149.248 21.1058 152.125 19.0882 154.087C17.7398 154.167 17.2114 154.466 16.53 154.466C16.0161 154.443 15.5129 154.311 15.053 154.081V154.087ZM185.542 147.173C184.163 142.204 188.157 139.987 191.878 141.988C192.843 142.951 192.337 145.374 192.456 147.173C191.373 148.039 190.218 148.81 189.004 149.477C187.458 149.101 186.813 147.826 185.542 147.173ZM115.276 148.328C115.401 148.359 114.201 147.8 114.128 147.751C112.192 146.476 112.212 144.358 111.243 141.986C111.4 140.458 111.954 138.998 112.849 137.75C113.744 136.501 114.949 135.509 116.346 134.87C117.742 134.231 119.282 133.968 120.811 134.107C122.341 134.246 123.807 134.782 125.066 135.662C126.276 137.543 126.88 139.75 126.798 141.986C126.251 145.972 121.561 148.636 117.518 148.636C116.76 148.643 116.005 148.539 115.276 148.328ZM118.151 139.107V140.839C119.089 141.782 121.776 141.531 121.619 139.687C121.619 138.834 120.817 138.503 119.974 138.503C119.313 138.475 118.665 138.691 118.153 139.109L118.151 139.107ZM133.706 147.173C131.549 144.88 131.758 139.944 132.559 136.229C136.205 131.521 146.201 133.452 148.675 137.959C149.057 139.951 148.819 142.013 147.995 143.867C147.17 145.72 145.798 147.277 144.063 148.328C142.947 148.342 141.819 148.371 140.715 148.371C138.315 148.562 135.906 148.15 133.706 147.173ZM138.316 140.849C137.843 142.932 142.665 142.237 142.349 140.849C141.753 140.449 141.051 140.234 140.332 140.234C139.614 140.234 138.912 140.449 138.316 140.849ZM153.288 141.998C152.647 138.869 152.651 135.955 154.442 133.936C157.798 131.431 163.602 133.652 165.389 136.241C166.073 137.108 166.462 138.171 166.5 139.275C166.537 140.378 166.221 141.465 165.597 142.376C164.973 143.288 164.074 143.976 163.031 144.34C161.989 144.704 160.857 144.726 159.801 144.401C157.021 144.387 154.261 143.652 153.288 141.988V141.998ZM160.779 140.274C161.172 138.724 159.589 139.162 159.049 138.546C158.704 140.029 159.279 140.617 160.789 140.264L160.779 140.274ZM85.9104 89.5884C84.8535 87.2437 84.4537 84.6558 84.7537 82.1015C85.4632 80.4335 86.6711 79.0257 88.2116 78.0706C88.9909 76.5467 91.59 76.8465 92.8201 75.7673C94.5112 75.7225 96.0677 75.7959 97.5284 75.8673C101.18 76.0489 104.219 76.2304 107.216 74.6147C109.488 75.204 111.857 75.3227 114.177 74.9636C116.268 74.6414 118.401 74.7182 120.464 75.19C123.587 77.0423 123.44 84.7025 121.039 87.2872C117.522 90.2452 111.004 90.2065 104.483 90.1677C103.279 90.1677 102.071 90.1535 100.886 90.1677C97.9827 90.7817 95.0326 91.1502 92.0673 91.2693C89.8806 91.4188 87.7078 90.8218 85.9044 89.5761L85.9104 89.5884ZM89.9374 84.9821C91.5102 86.2571 94.5641 85.339 95.7045 84.4047V80.3717C92.7751 80.8959 90.1393 81.72 89.9292 84.9697L89.9374 84.9821ZM111.249 84.4047C112.282 84.7848 113.387 84.9302 114.483 84.8303C115.579 84.7304 116.638 84.3879 117.585 83.8274V79.7984H111.249V84.4047ZM100.884 80.3717C100.605 82.1893 101.92 82.4116 101.455 84.4047H104.923V79.7984C104.64 79.7984 104.346 79.7984 104.052 79.7862C103.759 79.774 103.503 79.7719 103.236 79.7719C102.403 79.6535 101.556 79.8642 100.876 80.3593L100.884 80.3717ZM75.5431 73.4601C73.0499 73.0369 70.6856 72.0534 68.6277 70.5837C68.6783 70.2054 68.59 69.8216 68.3792 69.5035C68.1683 69.1854 67.8493 68.9546 67.4812 68.8538C67.4261 67.944 67.7503 66.6587 66.9037 66.5526C66.8099 63.003 68.144 60.8815 68.0522 57.3319C68.4199 57.2316 68.7388 57.0014 68.9499 56.6842C69.1611 56.3669 69.2504 55.9839 69.2009 55.606C70.7498 54.3542 72.5033 53.3797 74.3844 52.7256C79.5925 51.7321 84.8251 53.9618 86.4857 57.3319C86.8937 63.7069 85.633 68.3826 83.028 71.7343C80.8456 72.7999 78.4623 73.3909 76.0349 73.4682C75.869 73.4601 75.7024 73.4532 75.5351 73.4478L75.5431 73.4601ZM74.9658 60.7917C74.823 63.5314 73.1767 64.7595 72.6626 67.128C73.7648 67.8214 74.9977 68.2814 76.2847 68.4797C77.5717 68.6779 78.8857 68.6102 80.1455 68.2806C81.8612 66.5017 81.3694 62.2278 80.7228 59.635C80.2495 59.5915 79.7978 59.5697 79.3681 59.5697C77.8047 59.4757 76.2542 59.9011 74.9576 60.7795L74.9658 60.7917ZM122.196 69.4311C120.205 67.0014 120.097 62.6992 119.891 58.4886C120.949 51.8831 127.971 47.6908 135.438 50.9997C136.033 52.5134 137.726 52.9377 138.322 54.4534C138.222 55.1266 138.445 55.4734 138.893 55.606C139.403 64.0149 134.493 70.4674 127.341 70.4674C125.573 70.4453 123.825 70.0903 122.188 69.4209L122.196 69.4311ZM125.072 65.398C125.942 65.764 126.889 65.9127 127.829 65.8313C128.769 65.7499 129.676 65.4407 130.47 64.9306C131.264 64.4205 131.923 63.7247 132.388 62.9034C132.853 62.0821 133.111 61.1599 133.14 60.2164C132.404 58.4661 131.557 57.7684 130.693 57.7684C128.353 57.7664 125.905 62.742 125.066 65.3858L125.072 65.398Z" fill="#F2F2F2"/>
</g>
<defs>
<clipPath id="clip0_1811_671">
<rect width="204" height="204" fill="white"/>
</clipPath>
</defs>
</svg>
